<mxfile host="app.diagrams.net" agent="Mozilla/5.0 (Windows NT 10.0; Win64; x64) AppleWebKit/537.36 (KHTML, like Gecko) Chrome/130.0.0.0 Safari/537.36" version="24.8.3">
  <diagram name="Trang-1" id="vYZXN840mFgNYGT_T0JH">
    <mxGraphModel grid="1" page="1" gridSize="10" guides="1" tooltips="1" connect="1" arrows="1" fold="1" pageScale="1" pageWidth="827" pageHeight="1169" math="0" shadow="0">
      <root>
        <mxCell id="0" />
        <mxCell id="1" parent="0" />
        <mxCell id="NIgbRf4keKX1ICjq97bd-2" value="" style="rounded=0;whiteSpace=wrap;html=1;" vertex="1" parent="1">
          <mxGeometry x="400" y="-1120" width="680" height="160" as="geometry" />
        </mxCell>
        <mxCell id="NIgbRf4keKX1ICjq97bd-3" value="" style="rounded=0;whiteSpace=wrap;html=1;" vertex="1" parent="1">
          <mxGeometry x="400" y="-880" width="680" height="160" as="geometry" />
        </mxCell>
        <mxCell id="NIgbRf4keKX1ICjq97bd-4" value="" style="rounded=0;whiteSpace=wrap;html=1;" vertex="1" parent="1">
          <mxGeometry x="400" y="-640" width="680" height="160" as="geometry" />
        </mxCell>
        <mxCell id="NIgbRf4keKX1ICjq97bd-5" value="" style="rounded=0;whiteSpace=wrap;html=1;" vertex="1" parent="1">
          <mxGeometry x="400" y="-400" width="680" height="160" as="geometry" />
        </mxCell>
        <mxCell id="NIgbRf4keKX1ICjq97bd-7" value="&lt;font style=&quot;font-size: 23px;&quot;&gt;Presentation Layer&lt;/font&gt;" style="text;html=1;align=left;verticalAlign=middle;whiteSpace=wrap;rounded=0;" vertex="1" parent="1">
          <mxGeometry x="40" y="-1085" width="200" height="90" as="geometry" />
        </mxCell>
        <mxCell id="NIgbRf4keKX1ICjq97bd-8" value="&lt;span style=&quot;font-size: 23px;&quot;&gt;Business Layer&lt;/span&gt;" style="text;html=1;align=left;verticalAlign=middle;whiteSpace=wrap;rounded=0;" vertex="1" parent="1">
          <mxGeometry x="40" y="-605" width="190" height="90" as="geometry" />
        </mxCell>
        <mxCell id="NIgbRf4keKX1ICjq97bd-9" value="&lt;span style=&quot;font-size: 23px;&quot;&gt;Persistence Layer&lt;/span&gt;" style="text;html=1;align=left;verticalAlign=middle;whiteSpace=wrap;rounded=0;" vertex="1" parent="1">
          <mxGeometry x="40" y="-365" width="190" height="90" as="geometry" />
        </mxCell>
        <mxCell id="NIgbRf4keKX1ICjq97bd-10" value="&lt;span style=&quot;font-size: 23px;&quot;&gt;Database Layer&lt;/span&gt;" style="text;html=1;align=left;verticalAlign=middle;whiteSpace=wrap;rounded=0;" vertex="1" parent="1">
          <mxGeometry x="40" y="-125" width="190" height="90" as="geometry" />
        </mxCell>
        <mxCell id="NIgbRf4keKX1ICjq97bd-11" value="&lt;font style=&quot;font-size: 15px;&quot;&gt;Student/lecturer Interface&lt;/font&gt;" style="rounded=1;whiteSpace=wrap;html=1;" vertex="1" parent="1">
          <mxGeometry x="440" y="-1070" width="190" height="60" as="geometry" />
        </mxCell>
        <mxCell id="NIgbRf4keKX1ICjq97bd-12" value="&lt;span style=&quot;font-size: 15px;&quot;&gt;SPSO Interface&lt;/span&gt;" style="rounded=1;whiteSpace=wrap;html=1;" vertex="1" parent="1">
          <mxGeometry x="830" y="-1070" width="190" height="60" as="geometry" />
        </mxCell>
        <mxCell id="NIgbRf4keKX1ICjq97bd-14" value="&lt;span style=&quot;font-size: 15px;&quot;&gt;Account service&lt;/span&gt;" style="rounded=1;whiteSpace=wrap;html=1;" vertex="1" parent="1">
          <mxGeometry x="440" y="-870" width="120" height="60" as="geometry" />
        </mxCell>
        <mxCell id="NIgbRf4keKX1ICjq97bd-17" value="&lt;span style=&quot;font-size: 15px;&quot;&gt;Print service&lt;/span&gt;" style="rounded=1;whiteSpace=wrap;html=1;" vertex="1" parent="1">
          <mxGeometry x="440" y="-800" width="120" height="60" as="geometry" />
        </mxCell>
        <mxCell id="NIgbRf4keKX1ICjq97bd-18" value="&lt;span style=&quot;font-size: 15px;&quot;&gt;Log History service&lt;/span&gt;" style="rounded=1;whiteSpace=wrap;html=1;" vertex="1" parent="1">
          <mxGeometry x="600" y="-870" width="120" height="60" as="geometry" />
        </mxCell>
        <mxCell id="NIgbRf4keKX1ICjq97bd-19" value="&lt;span style=&quot;font-size: 15px;&quot;&gt;Authentication&lt;/span&gt;" style="rounded=1;whiteSpace=wrap;html=1;" vertex="1" parent="1">
          <mxGeometry x="760" y="-870" width="120" height="60" as="geometry" />
        </mxCell>
        <mxCell id="NIgbRf4keKX1ICjq97bd-21" value="" style="rounded=0;whiteSpace=wrap;html=1;" vertex="1" parent="1">
          <mxGeometry x="400" y="-160" width="680" height="160" as="geometry" />
        </mxCell>
        <mxCell id="NIgbRf4keKX1ICjq97bd-23" value="&lt;span style=&quot;font-size: 23px;&quot;&gt;Service Layer&lt;/span&gt;" style="text;html=1;align=left;verticalAlign=middle;whiteSpace=wrap;rounded=0;" vertex="1" parent="1">
          <mxGeometry x="40" y="-845" width="190" height="90" as="geometry" />
        </mxCell>
        <mxCell id="NIgbRf4keKX1ICjq97bd-24" value="&lt;span style=&quot;font-size: 15px;&quot;&gt;Authorization&lt;/span&gt;" style="rounded=1;whiteSpace=wrap;html=1;" vertex="1" parent="1">
          <mxGeometry x="920" y="-870" width="120" height="60" as="geometry" />
        </mxCell>
        <mxCell id="NIgbRf4keKX1ICjq97bd-26" value="&lt;span style=&quot;font-size: 15px;&quot;&gt;Printint service&lt;/span&gt;" style="rounded=1;whiteSpace=wrap;html=1;" vertex="1" parent="1">
          <mxGeometry x="600" y="-790" width="120" height="60" as="geometry" />
        </mxCell>
        <mxCell id="NIgbRf4keKX1ICjq97bd-27" value="&lt;span style=&quot;font-size: 15px;&quot;&gt;Process transaction&lt;/span&gt;" style="rounded=1;whiteSpace=wrap;html=1;" vertex="1" parent="1">
          <mxGeometry x="760" y="-790" width="120" height="60" as="geometry" />
        </mxCell>
        <mxCell id="NIgbRf4keKX1ICjq97bd-28" value="&lt;font style=&quot;font-size: 15px; font-weight: normal;&quot;&gt;Print management&lt;/font&gt;" style="rounded=1;whiteSpace=wrap;html=1;fontStyle=1" vertex="1" parent="1">
          <mxGeometry x="440" y="-620" width="120" height="60" as="geometry" />
        </mxCell>
        <mxCell id="NIgbRf4keKX1ICjq97bd-29" value="&lt;font style=&quot;font-size: 15px;&quot;&gt;Report service&lt;/font&gt;" style="rounded=1;whiteSpace=wrap;html=1;" vertex="1" parent="1">
          <mxGeometry x="920" y="-790" width="120" height="60" as="geometry" />
        </mxCell>
        <mxCell id="NIgbRf4keKX1ICjq97bd-30" value="&lt;span style=&quot;font-size: 15px;&quot;&gt;Login&lt;/span&gt;" style="rounded=1;whiteSpace=wrap;html=1;" vertex="1" parent="1">
          <mxGeometry x="610" y="-620" width="120" height="60" as="geometry" />
        </mxCell>
        <mxCell id="NIgbRf4keKX1ICjq97bd-31" value="&lt;font style=&quot;font-size: 15px;&quot;&gt;View report&lt;/font&gt;" style="rounded=1;whiteSpace=wrap;html=1;" vertex="1" parent="1">
          <mxGeometry x="760" y="-620" width="120" height="60" as="geometry" />
        </mxCell>
        <mxCell id="NIgbRf4keKX1ICjq97bd-32" value="&lt;span style=&quot;font-size: 15px;&quot;&gt;Printing&lt;/span&gt;" style="rounded=1;whiteSpace=wrap;html=1;" vertex="1" parent="1">
          <mxGeometry x="920" y="-620" width="120" height="60" as="geometry" />
        </mxCell>
        <mxCell id="NIgbRf4keKX1ICjq97bd-33" value="&lt;font style=&quot;font-size: 15px;&quot;&gt;User management&lt;/font&gt;" style="rounded=1;whiteSpace=wrap;html=1;" vertex="1" parent="1">
          <mxGeometry x="440" y="-550" width="120" height="60" as="geometry" />
        </mxCell>
        <mxCell id="NIgbRf4keKX1ICjq97bd-34" value="&lt;font style=&quot;font-size: 15px;&quot;&gt;System configuration&lt;/font&gt;" style="rounded=1;whiteSpace=wrap;html=1;" vertex="1" parent="1">
          <mxGeometry x="610" y="-550" width="120" height="60" as="geometry" />
        </mxCell>
        <mxCell id="NIgbRf4keKX1ICjq97bd-38" value="&lt;font style=&quot;font-size: 15px;&quot;&gt;Buy pages&lt;/font&gt;" style="rounded=1;whiteSpace=wrap;html=1;" vertex="1" parent="1">
          <mxGeometry x="760" y="-550" width="120" height="60" as="geometry" />
        </mxCell>
        <mxCell id="NIgbRf4keKX1ICjq97bd-40" value="&lt;font style=&quot;font-size: 15px;&quot;&gt;Customer Data Object&lt;/font&gt;" style="rounded=1;whiteSpace=wrap;html=1;" vertex="1" parent="1">
          <mxGeometry x="440" y="-380" width="120" height="60" as="geometry" />
        </mxCell>
        <mxCell id="NIgbRf4keKX1ICjq97bd-41" value="&lt;font style=&quot;font-size: 15px;&quot;&gt;SPSO Data Object&lt;/font&gt;" style="rounded=1;whiteSpace=wrap;html=1;" vertex="1" parent="1">
          <mxGeometry x="610" y="-380" width="120" height="60" as="geometry" />
        </mxCell>
        <mxCell id="NIgbRf4keKX1ICjq97bd-43" value="&lt;font style=&quot;font-size: 15px;&quot;&gt;Printer Data Object&lt;/font&gt;" style="rounded=1;whiteSpace=wrap;html=1;" vertex="1" parent="1">
          <mxGeometry x="760" y="-380" width="120" height="60" as="geometry" />
        </mxCell>
        <mxCell id="NIgbRf4keKX1ICjq97bd-44" value="&lt;font style=&quot;font-size: 15px;&quot;&gt;Purchase Data Object&lt;/font&gt;" style="rounded=1;whiteSpace=wrap;html=1;" vertex="1" parent="1">
          <mxGeometry x="680" y="-310" width="120" height="60" as="geometry" />
        </mxCell>
        <mxCell id="NIgbRf4keKX1ICjq97bd-45" value="&lt;span style=&quot;font-size: 15px;&quot;&gt;Document Data Object&lt;/span&gt;" style="rounded=1;whiteSpace=wrap;html=1;" vertex="1" parent="1">
          <mxGeometry x="920" y="-380" width="120" height="60" as="geometry" />
        </mxCell>
        <mxCell id="NIgbRf4keKX1ICjq97bd-47" value="Customer Data Object" style="shape=cylinder3;whiteSpace=wrap;html=1;boundedLbl=1;backgroundOutline=1;size=15;" vertex="1" parent="1">
          <mxGeometry x="430" y="-150" width="100" height="70" as="geometry" />
        </mxCell>
        <mxCell id="NIgbRf4keKX1ICjq97bd-48" value="SPSO Data Object" style="shape=cylinder3;whiteSpace=wrap;html=1;boundedLbl=1;backgroundOutline=1;size=15;" vertex="1" parent="1">
          <mxGeometry x="600" y="-150" width="100" height="70" as="geometry" />
        </mxCell>
        <mxCell id="NIgbRf4keKX1ICjq97bd-49" value="Printer Data Object" style="shape=cylinder3;whiteSpace=wrap;html=1;boundedLbl=1;backgroundOutline=1;size=15;" vertex="1" parent="1">
          <mxGeometry x="770" y="-150" width="100" height="70" as="geometry" />
        </mxCell>
        <mxCell id="NIgbRf4keKX1ICjq97bd-50" value="Document Data Object" style="shape=cylinder3;whiteSpace=wrap;html=1;boundedLbl=1;backgroundOutline=1;size=15;" vertex="1" parent="1">
          <mxGeometry x="930" y="-150" width="100" height="70" as="geometry" />
        </mxCell>
        <mxCell id="NIgbRf4keKX1ICjq97bd-51" value="Purchase Data Object" style="shape=cylinder3;whiteSpace=wrap;html=1;boundedLbl=1;backgroundOutline=1;size=15;" vertex="1" parent="1">
          <mxGeometry x="700" y="-80" width="100" height="70" as="geometry" />
        </mxCell>
        <mxCell id="NIgbRf4keKX1ICjq97bd-56" value="" style="endArrow=classic;html=1;rounded=0;exitX=0.75;exitY=0;exitDx=0;exitDy=0;entryX=0.75;entryY=1;entryDx=0;entryDy=0;" edge="1" parent="1" source="NIgbRf4keKX1ICjq97bd-3" target="NIgbRf4keKX1ICjq97bd-2">
          <mxGeometry width="50" height="50" relative="1" as="geometry">
            <mxPoint x="390" y="-1010" as="sourcePoint" />
            <mxPoint x="440" y="-1060" as="targetPoint" />
          </mxGeometry>
        </mxCell>
        <mxCell id="NIgbRf4keKX1ICjq97bd-59" value="" style="endArrow=classic;html=1;rounded=0;exitX=0.25;exitY=1;exitDx=0;exitDy=0;entryX=0.25;entryY=0;entryDx=0;entryDy=0;" edge="1" parent="1" source="NIgbRf4keKX1ICjq97bd-2" target="NIgbRf4keKX1ICjq97bd-3">
          <mxGeometry width="50" height="50" relative="1" as="geometry">
            <mxPoint x="390" y="-900" as="sourcePoint" />
            <mxPoint x="440" y="-950" as="targetPoint" />
          </mxGeometry>
        </mxCell>
        <mxCell id="NIgbRf4keKX1ICjq97bd-60" value="" style="endArrow=classic;html=1;rounded=0;exitX=0.25;exitY=1;exitDx=0;exitDy=0;entryX=0.25;entryY=0;entryDx=0;entryDy=0;" edge="1" parent="1" source="NIgbRf4keKX1ICjq97bd-3" target="NIgbRf4keKX1ICjq97bd-4">
          <mxGeometry width="50" height="50" relative="1" as="geometry">
            <mxPoint x="390" y="-670" as="sourcePoint" />
            <mxPoint x="440" y="-720" as="targetPoint" />
          </mxGeometry>
        </mxCell>
        <mxCell id="NIgbRf4keKX1ICjq97bd-61" value="" style="endArrow=classic;html=1;rounded=0;exitX=0.75;exitY=0;exitDx=0;exitDy=0;entryX=0.75;entryY=1;entryDx=0;entryDy=0;" edge="1" parent="1" source="NIgbRf4keKX1ICjq97bd-4" target="NIgbRf4keKX1ICjq97bd-3">
          <mxGeometry width="50" height="50" relative="1" as="geometry">
            <mxPoint x="390" y="-670" as="sourcePoint" />
            <mxPoint x="440" y="-720" as="targetPoint" />
          </mxGeometry>
        </mxCell>
        <mxCell id="NIgbRf4keKX1ICjq97bd-62" value="" style="endArrow=classic;html=1;rounded=0;exitX=0.25;exitY=1;exitDx=0;exitDy=0;entryX=0.25;entryY=0;entryDx=0;entryDy=0;" edge="1" parent="1" source="NIgbRf4keKX1ICjq97bd-4" target="NIgbRf4keKX1ICjq97bd-5">
          <mxGeometry width="50" height="50" relative="1" as="geometry">
            <mxPoint x="390" y="-670" as="sourcePoint" />
            <mxPoint x="440" y="-720" as="targetPoint" />
          </mxGeometry>
        </mxCell>
        <mxCell id="NIgbRf4keKX1ICjq97bd-63" value="" style="endArrow=classic;html=1;rounded=0;exitX=0.75;exitY=0;exitDx=0;exitDy=0;entryX=0.75;entryY=1;entryDx=0;entryDy=0;" edge="1" parent="1" source="NIgbRf4keKX1ICjq97bd-5" target="NIgbRf4keKX1ICjq97bd-4">
          <mxGeometry width="50" height="50" relative="1" as="geometry">
            <mxPoint x="390" y="-670" as="sourcePoint" />
            <mxPoint x="440" y="-720" as="targetPoint" />
          </mxGeometry>
        </mxCell>
        <mxCell id="NIgbRf4keKX1ICjq97bd-64" value="" style="endArrow=classic;html=1;rounded=0;exitX=0.25;exitY=1;exitDx=0;exitDy=0;entryX=0.25;entryY=0;entryDx=0;entryDy=0;" edge="1" parent="1" source="NIgbRf4keKX1ICjq97bd-5" target="NIgbRf4keKX1ICjq97bd-21">
          <mxGeometry width="50" height="50" relative="1" as="geometry">
            <mxPoint x="390" y="-120" as="sourcePoint" />
            <mxPoint x="440" y="-170" as="targetPoint" />
          </mxGeometry>
        </mxCell>
        <mxCell id="NIgbRf4keKX1ICjq97bd-65" value="" style="endArrow=classic;html=1;rounded=0;entryX=0.75;entryY=1;entryDx=0;entryDy=0;exitX=0.75;exitY=0;exitDx=0;exitDy=0;" edge="1" parent="1" source="NIgbRf4keKX1ICjq97bd-21" target="NIgbRf4keKX1ICjq97bd-5">
          <mxGeometry width="50" height="50" relative="1" as="geometry">
            <mxPoint x="390" y="-120" as="sourcePoint" />
            <mxPoint x="440" y="-170" as="targetPoint" />
          </mxGeometry>
        </mxCell>
        <mxCell id="NIgbRf4keKX1ICjq97bd-66" value="&lt;font style=&quot;font-size: 15px;&quot;&gt;Guest Interface&lt;/font&gt;" style="rounded=1;whiteSpace=wrap;html=1;" vertex="1" parent="1">
          <mxGeometry x="660" y="-1070" width="140" height="60" as="geometry" />
        </mxCell>
        <mxCell id="NIgbRf4keKX1ICjq97bd-67" value="HCMUT_SSO" style="rounded=1;whiteSpace=wrap;html=1;" vertex="1" parent="1">
          <mxGeometry x="1140" y="-870" width="120" height="60" as="geometry" />
        </mxCell>
        <mxCell id="NIgbRf4keKX1ICjq97bd-68" value="BKPay" style="rounded=1;whiteSpace=wrap;html=1;" vertex="1" parent="1">
          <mxGeometry x="1140" y="-790" width="120" height="60" as="geometry" />
        </mxCell>
        <mxCell id="NIgbRf4keKX1ICjq97bd-69" value="" style="endArrow=classic;html=1;rounded=0;exitX=0;exitY=0.25;exitDx=0;exitDy=0;entryX=0.998;entryY=0.154;entryDx=0;entryDy=0;entryPerimeter=0;" edge="1" parent="1" source="NIgbRf4keKX1ICjq97bd-67" target="NIgbRf4keKX1ICjq97bd-3">
          <mxGeometry width="50" height="50" relative="1" as="geometry">
            <mxPoint x="680" y="-660" as="sourcePoint" />
            <mxPoint x="730" y="-710" as="targetPoint" />
          </mxGeometry>
        </mxCell>
        <mxCell id="NIgbRf4keKX1ICjq97bd-70" value="" style="endArrow=classic;html=1;rounded=0;exitX=1;exitY=0.25;exitDx=0;exitDy=0;entryX=0;entryY=0.5;entryDx=0;entryDy=0;" edge="1" parent="1" source="NIgbRf4keKX1ICjq97bd-3" target="NIgbRf4keKX1ICjq97bd-67">
          <mxGeometry width="50" height="50" relative="1" as="geometry">
            <mxPoint x="680" y="-660" as="sourcePoint" />
            <mxPoint x="730" y="-710" as="targetPoint" />
          </mxGeometry>
        </mxCell>
        <mxCell id="NIgbRf4keKX1ICjq97bd-71" value="" style="endArrow=classic;html=1;rounded=0;exitX=0;exitY=0.5;exitDx=0;exitDy=0;entryX=1;entryY=0.75;entryDx=0;entryDy=0;" edge="1" parent="1">
          <mxGeometry width="50" height="50" relative="1" as="geometry">
            <mxPoint x="1140" y="-773" as="sourcePoint" />
            <mxPoint x="1080" y="-773" as="targetPoint" />
          </mxGeometry>
        </mxCell>
        <mxCell id="NIgbRf4keKX1ICjq97bd-72" value="" style="endArrow=classic;html=1;rounded=0;exitX=1;exitY=0.75;exitDx=0;exitDy=0;entryX=0;entryY=0.5;entryDx=0;entryDy=0;" edge="1" parent="1" source="NIgbRf4keKX1ICjq97bd-3" target="NIgbRf4keKX1ICjq97bd-68">
          <mxGeometry width="50" height="50" relative="1" as="geometry">
            <mxPoint x="680" y="-660" as="sourcePoint" />
            <mxPoint x="730" y="-710" as="targetPoint" />
          </mxGeometry>
        </mxCell>
      </root>
    </mxGraphModel>
  </diagram>
</mxfile>
